<svg version="1.2" xmlns="http://www.w3.org/2000/svg" viewBox="0 0 28 28" width="28" height="28"><style>.a{fill:#3e4954}</style><path fill-rule="evenodd" class="a" d="m22.6 26.5q-0.2 0-0.4 0.1-2.2 1-4.6 1c-3.7 0-7.1-2.1-8.9-5.2q0.9 0.1 1.8 0.1c3.3 0 6.3-1.3 8.5-3.6 2.3-2.3 3.5-5.4 3.5-8.6q0-1.1-0.2-2.2c2.3 1.1 4.1 3 5 5.3 1.1 2.7 0.8 5.3-0.1 8-0.7 2.1-0.6 4.4 0.4 6.4-1.5 0.5-3.2 0.1-4.4-1q-0.3-0.3-0.6-0.3z"/><path fill-rule="evenodd" class="a" d="m10.5 0c5.6 0.1 10.2 4.7 10.2 10.3 0 5.7-4.5 10.2-10.2 10.3q-2.4 0.1-4.6-1c-0.4-0.2-0.8-0.1-1.1 0.2-1.1 1.1-2.8 1.5-4.3 1 0.9-2 1.1-4.3 0.3-6.4q0 0 0-0.1-0.8-1.9-0.8-4c0-5.8 4.8-10.4 10.5-10.3zm-4.2 10.4c0-0.9-0.7-1.5-1.5-1.5-0.8 0-1.5 0.6-1.5 1.5 0 0.8 0.7 1.5 1.5 1.5 0.8 0 1.5-0.7 1.5-1.5zm5.5 0c0-0.9-0.6-1.5-1.5-1.5-0.8 0-1.5 0.6-1.5 1.5 0 0.8 0.7 1.5 1.5 1.5 0.9 0 1.5-0.7 1.5-1.5zm5.5 0c0-0.9-0.6-1.5-1.5-1.5-0.8 0-1.5 0.6-1.5 1.5 0 0.8 0.7 1.5 1.5 1.5 0.9 0 1.5-0.7 1.5-1.5z"/></svg>