<svg version="1.2" xmlns="http://www.w3.org/2000/svg" viewBox="0 0 24 23" width="24" height="23"><style>.a{fill:#fff}</style><path fill-rule="evenodd" class="a" d="m23.3 9q0.2 0.2 0.3 0.6 0.1 0.3 0 0.6-0.1 0.4-0.4 0.6-0.3 0.2-0.7 0.2h-2.3v8.2c0 0.9-0.4 1.8-1.1 2.4-0.6 0.7-1.5 1.1-2.4 1.1h-1.2v-7c0-4.7-7-4.7-7 0v7h-1.2c-0.9 0-1.8-0.4-2.4-1.1-0.7-0.6-1.1-1.5-1.1-2.4v-8.2h-2.3q-0.4 0-0.7-0.2-0.3-0.2-0.4-0.6-0.1-0.3 0-0.6 0.1-0.4 0.3-0.6l9-8c0.6-0.6 1.4-0.9 2.3-0.9 0.9 0 1.7 0.3 2.3 0.9l9 8z"/></svg>